<?xml version="1.0" encoding="iso-8859-1"?>
<!-- Uploaded to: SVG Repo, www.svgrepo.com, Generator: SVG Repo Mixer Tools -->
<!DOCTYPE svg PUBLIC "-//W3C//DTD SVG 1.1//EN" "http://www.w3.org/Graphics/SVG/1.1/DTD/svg11.dtd">
<svg fill="#000000" height="800px" width="800px" version="1.1" id="Capa_1" xmlns="http://www.w3.org/2000/svg" xmlns:xlink="http://www.w3.org/1999/xlink" 
	 viewBox="0 0 215.652 215.652" xml:space="preserve">
<path d="M177.423,115.751c-1.423,0-2.826,0.084-4.209,0.237c1.502-3.656,2.688-7.47,3.567-11.399h1.161
	c14.063,0,25.505-11.441,25.505-25.504v-9.551c0-4.143-3.358-7.5-7.5-7.5h-17.455V50.461c0-2.06-0.847-4.028-2.342-5.444
	c-0.93-0.881-23.291-21.574-68.323-21.574c-45.033,0-67.393,20.693-68.323,21.574c-1.495,1.416-2.342,3.385-2.342,5.444v38.767
	c0,9.468,1.885,18.5,5.278,26.76c-1.383-0.152-2.787-0.237-4.21-0.237C17.149,115.751,0,132.901,0,153.981
	c0,21.079,17.149,38.229,38.229,38.229c21.079,0,38.229-17.149,38.229-38.229c0-0.495-0.019-0.985-0.037-1.476
	c9.468,4.718,20.129,7.388,31.406,7.388c11.023,0,21.462-2.541,30.769-7.062c-0.058,0.376-0.097,0.758-0.097,1.149
	c0,1.259,0.314,2.443,0.862,3.485c1.767,19.451,18.159,34.744,38.063,34.744c21.08,0,38.229-17.149,38.229-38.229
	C215.652,132.901,198.502,115.751,177.423,115.751z M30.729,175.96c-6.783-2.321-12.158-7.696-14.479-14.479h14.479V175.96z
	 M30.729,146.481H16.25c2.321-6.784,7.696-12.159,14.479-14.48V146.481z M141.351,49.735c7.963,2.889,13.352,6.227,16.176,8.24
	v27.548h-16.176V49.735z M126.351,85.523h-37.05V45.722c5.48-0.953,11.649-1.546,18.525-1.546c6.857,0,13.031,0.605,18.525,1.578
	V85.523z M74.301,85.523H58.125V57.937c2.809-2.035,8.169-5.39,16.176-8.279V85.523z M45.729,175.96v-14.479h14.479
	C57.887,168.264,52.512,173.638,45.729,175.96z M45.729,146.481v-14.48c6.783,2.322,12.158,7.696,14.479,14.48H45.729z
	 M169.923,175.96c-6.783-2.321-12.158-7.696-14.479-14.479h14.479V175.96z M169.923,146.481h-14.479
	c2.321-6.784,7.696-12.158,14.479-14.48V146.481z M184.923,175.96v-14.479h14.479C197.081,168.264,191.706,173.639,184.923,175.96z
	 M184.923,146.481v-14.48c6.783,2.321,12.158,7.696,14.479,14.48H184.923z"/>
</svg>