<?xml version="1.0" encoding="UTF-8" standalone="no"?>
<!-- Uploaded to: SVG Repo, www.svgrepo.com, Generator: SVG Repo Mixer Tools -->

<svg
   version="1.1"
   id="Uploaded to svgrepo.com"
   width="800px"
   height="800px"
   viewBox="0 0 32 32"
   xml:space="preserve"
   sodipodi:docname="pray.svg"
   inkscape:version="1.2.2 (b0a8486541, 2022-12-01)"
   xmlns:inkscape="http://www.inkscape.org/namespaces/inkscape"
   xmlns:sodipodi="http://sodipodi.sourceforge.net/DTD/sodipodi-0.dtd"
   xmlns="http://www.w3.org/2000/svg"
   xmlns:svg="http://www.w3.org/2000/svg"><defs
   id="defs9" /><sodipodi:namedview
   id="namedview7"
   pagecolor="#ffffff"
   bordercolor="#000000"
   borderopacity="0.25"
   inkscape:showpageshadow="2"
   inkscape:pageopacity="0.0"
   inkscape:pagecheckerboard="0"
   inkscape:deskcolor="#d1d1d1"
   showgrid="false"
   inkscape:zoom="0.92625"
   inkscape:cx="400"
   inkscape:cy="399.46019"
   inkscape:window-width="1920"
   inkscape:window-height="1019"
   inkscape:window-x="0"
   inkscape:window-y="0"
   inkscape:window-maximized="1"
   inkscape:current-layer="Uploaded to svgrepo.com" />
<style
   type="text/css"
   id="style2">
	.stone_een{fill:#0B1719;}
</style>
<path
   class="stone_een"
   d="M24,0c-1.105,0-2,0.895-2,2c0,0.37,0.108,0.713,0.283,1.01L21.01,4.283C20.713,4.108,20.37,4,20,4  c-1.105,0-2,0.895-2,2c0,0.37,0.108,0.713,0.283,1.01L17.01,8.283C16.713,8.108,16.37,8,16,8s-0.713,0.108-1.01,0.283L13.717,7.01  C13.892,6.713,14,6.37,14,6c0-1.105-0.895-2-2-2c-0.37,0-0.713,0.108-1.01,0.283L9.717,3.01C9.892,2.713,10,2.37,10,2  c0-1.105-0.895-2-2-2S6,0.895,6,2s0.895,2,2,2c0.37,0,0.713-0.108,1.01-0.283l1.273,1.273C10.108,5.287,10,5.63,10,6  c0,1.105,0.895,2,2,2c0.37,0,0.713-0.108,1.01-0.283l1.273,1.273C14.108,9.287,14,9.63,14,10c0,0.931,0.639,1.706,1.5,1.929v1.141  C14.639,13.294,14,14.069,14,15s0.639,1.706,1.5,1.929V18H15c-0.552,0-1,0.448-1,1v2h-2c-0.552,0-1,0.448-1,1v2c0,0.552,0.448,1,1,1  h2v6c0,0.552,0.448,1,1,1h2c0.552,0,1-0.448,1-1v-6h2c0.552,0,1-0.448,1-1v-2c0-0.552-0.448-1-1-1h-2v-2c0-0.552-0.448-1-1-1h-0.5  v-1.071C17.361,16.706,18,15.931,18,15s-0.639-1.706-1.5-1.929v-1.141C17.361,11.706,18,10.931,18,10c0-0.37-0.108-0.713-0.283-1.01  l1.273-1.273C19.287,7.892,19.63,8,20,8c1.105,0,2-0.895,2-2c0-0.37-0.108-0.713-0.283-1.01l1.273-1.273C23.287,3.892,23.63,4,24,4  c1.105,0,2-0.895,2-2S25.105,0,24,0z"
   id="path4"
   style="fill:#000000" />
</svg>
