<?xml version="1.0" encoding="utf-8"?>
<!-- Uploaded to: SVG Repo, www.svgrepo.com, Generator: SVG Repo Mixer Tools -->
<svg fill="#000000" width="800px" height="800px" viewBox="0 0 32 32" version="1.1" xmlns="http://www.w3.org/2000/svg">
<title>broken-skull</title>
<path d="M31.155 18.938c0-6.615-2.188-14.287-7.774-17.897l-0-0-1.472 2.277c1.418 0.873 2.163 1.681 2.882 3.109-0.497 0.689-0.87 1.521-1.182 2.46 0.254 0.566 0.438 1.576 0.439 2.245l-2.24-0.366-1.934 2.123-1.555-3.185c-2.045 2.515-2.658 3.571-5.821 3.356l-0.894-2.757-3.188 0.618c0 0-0.581-3.176-1.557-3.887 0.274-1.145 1.090-2.159 2.579-3.071l-1.414-2.619c-5.176 3.629-7.281 10.84-7.281 17.594 5.797 2.916 7.527 6.229 7.205 9.745 0.864 0.487 1.758 0.97 2.806 1.251 1.433 0.384 2.97 0.569 4.55 0.569s3.199-0.184 4.702-0.569c1.361-0.348 2.595-0.892 3.716-1.555-0.050-3.421 1.814-6.8 7.432-9.441zM11.72 20.697c-1.763 1.018-3.823 0.757-4.585-0.563-0.435-0.754-0.341-1.688 0.134-2.547l-0-0c0.801-0.014 1.745-0.175 2.762-0.563 0.969-0.37 1.876-0.877 2.601-1.421 0.374 0.197 0.701 0.493 0.912 0.858 0.762 1.32-0.060 3.218-1.823 4.236zM13.42 27.085c0.616-2.254 1.356-4.509 2.529-6.763 0-0-0-0-0-0h0c0 0-0 0-0 0 1.156 2.254 2.074 4.509 2.529 6.763-1.686-0.514-3.372-0.583-5.058 0zM24.757 20.134c-0.762 1.32-2.822 1.581-4.585 0.563s-2.586-2.916-1.823-4.236c0.211-0.365 0.537-0.661 0.912-0.858 0.724 0.544 1.632 1.051 2.601 1.421 1.017 0.389 1.961 0.549 2.762 0.563l-0 0c0.475 0.859 0.569 1.793 0.134 2.547zM6.584 7.391c0.33-0.871 0.554-1.926 1.621-2.612zM25.137 6.748c-0.363-0.688-0.965-1.891-1.689-2.431z"></path>
</svg>