<?xml version="1.0" encoding="UTF-8" standalone="no"?>
<svg
   viewBox="0 0 512 512"
   width="512"
   height="512"
   version="1.1"
   id="svg6"
   sodipodi:docname="sleep.svg"
   inkscape:version="1.2.2 (b0a8486541, 2022-12-01)"
   xmlns:inkscape="http://www.inkscape.org/namespaces/inkscape"
   xmlns:sodipodi="http://sodipodi.sourceforge.net/DTD/sodipodi-0.dtd"
   xmlns="http://www.w3.org/2000/svg"
   xmlns:svg="http://www.w3.org/2000/svg">
  <defs
     id="defs10" />
  <sodipodi:namedview
     id="namedview8"
     pagecolor="#ffffff"
     bordercolor="#000000"
     borderopacity="0.25"
     inkscape:showpageshadow="2"
     inkscape:pageopacity="0.0"
     inkscape:pagecheckerboard="0"
     inkscape:deskcolor="#d1d1d1"
     showgrid="false"
     inkscape:zoom="1.4472656"
     inkscape:cx="256"
     inkscape:cy="255.65452"
     inkscape:window-width="1920"
     inkscape:window-height="1019"
     inkscape:window-x="0"
     inkscape:window-y="0"
     inkscape:window-maximized="1"
     inkscape:current-layer="svg6" />
  <g
     class=""
     transform="translate(0,0)"
     style="touch-action:none;fill:#000000"
     id="g4">
    <path
       d="M294.8 26.57L238 60.37l7.8 13.17L281 52.59 270.8 118l6.3 10.6L336 93.53l-7.8-13.17-37.3 22.14L301 37.12l-6.2-10.55zM147.1 60.55A224 224 0 0 0 32 256a224 224 0 0 0 224 224 224 224 0 0 0 214.9-161.2A208 208 0 0 1 320 384a208 208 0 0 1-208-208 208 208 0 0 1 35.1-115.45zm244.5 52.05l-6.9 16.5 44.1 18.4-68.3 35.9-5.5 13.2 73.7 30.8 6.9-16.5-46.7-19.5 68.3-35.9 5.5-13.2-71.1-29.7zm-115 64l-97.8 35 8.1 22.7 60.6-21.7-35.4 97.9 6.5 18.1L320 292.4l-8.1-22.7-64.2 23 35.4-97.9-6.5-18.2z"
       fill="#ffffff"
       fill-opacity="1"
       id="path2"
       style="fill:#000000" />
  </g>
</svg>
