<?xml version="1.0" encoding="UTF-8"?>
<svg xmlns="http://www.w3.org/2000/svg" xmlns:xlink="http://www.w3.org/1999/xlink" width="1000px" height="1000px" viewBox="0 0 1000 1000" version="1.1">
<g id="surface1">
<path style=" stroke:none;fill-rule:nonzero;fill:rgb(94.509804%,80%,51.372549%);fill-opacity:1;" d="M 214.527344 602 C 222.253906 623.488281 232.292969 644.074219 244.472656 663.390625 L 442.695312 347.277344 C 442.695312 347.277344 421.859375 338.722656 409.359375 317.582031 L 473.082031 212.972656 L 755.5 663.417969 C 767.675781 644.097656 777.71875 623.515625 785.445312 602.027344 L 795.804688 573.332031 L 674.640625 380.140625 L 520.722656 134.640625 C 560.445312 69.417969 516.832031 2.109375 516.832031 2.109375 C 521.277344 77.722656 499.554688 100.945312 499.554688 100.945312 L 479.054688 68.277344 C 473.390625 58.980469 464.175781 52.402344 453.542969 50.070312 C 442.910156 47.734375 431.785156 49.847656 422.75 55.917969 C 404 68.527344 398.640625 94.472656 410.832031 113.859375 L 451.304688 178.222656 L 204.222656 573.5 L 214.5 602 Z M 749.804688 555.554688 C 761.667969 555.554688 771.304688 565.5 771.304688 577.75 C 771.492188 589.8125 761.867188 599.746094 749.804688 599.945312 C 737.742188 599.730469 728.132812 589.785156 728.332031 577.722656 C 728.332031 565.5 737.945312 555.554688 749.804688 555.554688 Z M 486.390625 134.582031 C 498.25 134.582031 507.890625 144.527344 507.890625 156.804688 C 508.058594 168.859375 498.441406 178.773438 486.390625 178.972656 C 474.335938 178.757812 464.730469 168.832031 464.917969 156.777344 C 464.917969 144.554688 474.527344 134.582031 486.390625 134.582031 Z M 486.390625 134.582031 "/>
<path style=" stroke:none;fill-rule:nonzero;fill:rgb(94.509804%,80%,51.372549%);fill-opacity:1;" d="M 826.140625 875.027344 L 772.75 769 C 790.828125 750.042969 806.957031 729.320312 820.890625 707.140625 L 916.667969 765.945312 L 841.359375 645.832031 L 822.890625 616.390625 C 805.824219 663.96875 778.804688 707.359375 743.640625 743.667969 C 712.480469 775.992188 675.277344 801.878906 634.140625 819.859375 C 591.867188 838.375 546.203125 847.890625 500.054688 847.804688 C 453.554688 847.804688 408.445312 838.445312 365.945312 819.859375 C 324.816406 801.863281 287.625 775.964844 256.472656 743.640625 C 221.304688 707.34375 194.285156 663.960938 177.222656 616.390625 L 158.75 645.859375 L 83.332031 766 L 179.109375 707.195312 C 193 729.332031 209.109375 749.972656 227.25 769.054688 L 173.859375 875.082031 L 268.804688 806.917969 C 289.738281 823.347656 312.347656 837.527344 336.25 849.222656 L 321.554688 967.609375 L 387.945312 869.917969 C 415.304688 878.609375 443.5 883.972656 472.25 886.140625 L 499.945312 1002.109375 L 527.667969 886.140625 C 556.304688 884.046875 584.601562 878.601562 611.972656 869.917969 L 678.359375 967.609375 L 663.609375 849.167969 C 687.511719 837.480469 710.109375 823.300781 731.027344 806.859375 Z M 826.140625 875.027344 "/>
<path style=" stroke:none;fill-rule:nonzero;fill:rgb(94.509804%,80%,51.372549%);fill-opacity:1;" d="M 500 750.667969 C 527.5 750.667969 549.777344 727.640625 549.777344 699.277344 C 549.777344 670.859375 527.472656 647.859375 499.972656 647.859375 C 472.472656 647.859375 450.195312 670.859375 450.195312 699.25 C 450.195312 727.640625 472.472656 750.640625 499.972656 750.640625 Z M 500 750.667969 "/>
<path style=" stroke:none;fill-rule:nonzero;fill:rgb(94.509804%,80%,51.372549%);fill-opacity:1;" d="M 270.832031 699.25 C 300.875 734.929688 338.722656 763.226562 381.445312 781.945312 C 418.808594 798.324219 459.175781 806.742188 499.972656 806.667969 C 541.082031 806.667969 580.972656 798.332031 618.5 781.945312 C 661.246094 763.265625 699.101562 734.964844 729.109375 699.25 C 699.070312 663.570312 661.222656 635.273438 618.5 616.554688 C 581.140625 600.191406 540.785156 591.78125 500 591.859375 C 458.890625 591.859375 419 600.195312 381.472656 616.582031 C 338.726562 635.253906 300.875 663.542969 270.859375 699.25 Z M 395.277344 650.359375 C 428.300781 635.921875 463.960938 628.496094 500 628.554688 C 536.390625 628.554688 571.582031 635.890625 604.75 650.359375 C 632.1875 662.371094 657.417969 678.894531 679.390625 699.25 C 657.429688 719.621094 632.199219 736.148438 604.75 748.140625 C 571.730469 762.578125 536.070312 770.003906 500.027344 769.945312 C 463.988281 770.011719 428.328125 762.597656 395.304688 748.167969 C 367.867188 736.15625 342.640625 719.628906 320.667969 699.277344 C 342.636719 678.914062 367.867188 662.378906 395.304688 650.359375 Z M 395.277344 650.359375 "/>
<path style=" stroke:none;fill-rule:nonzero;fill:rgb(94.509804%,80%,51.372549%);fill-opacity:1;" d="M 375.167969 530.859375 L 335.832031 593.609375 C 345.609375 588.140625 355.609375 583.167969 365.890625 578.695312 C 408.160156 560.171875 453.820312 550.648438 499.972656 550.722656 C 546.445312 550.722656 591.554688 560.109375 634.054688 578.695312 C 644.359375 583.195312 654.390625 588.167969 664.109375 593.609375 L 624.777344 530.890625 L 624.722656 530.890625 L 563.722656 433.390625 L 564.054688 514.972656 C 552.582031 512.972656 541 511.554688 529.277344 510.667969 L 500.027344 408.082031 L 470.75 510.582031 C 459.082031 511.5 447.5 512.972656 436.027344 514.917969 L 436.359375 433.332031 L 375.167969 530.890625 Z M 375.167969 530.859375 "/>
</g>
</svg>
