<?xml version="1.0" encoding="UTF-8" standalone="no"?>
<svg
   width="1000px"
   height="1000px"
   viewBox="0 0 1000 1000"
   version="1.1"
   id="svg13"
   sodipodi:docname="archeterica-black.svg"
   inkscape:version="1.2.2 (b0a8486541, 2022-12-01)"
   xmlns:inkscape="http://www.inkscape.org/namespaces/inkscape"
   xmlns:sodipodi="http://sodipodi.sourceforge.net/DTD/sodipodi-0.dtd"
   xmlns="http://www.w3.org/2000/svg"
   xmlns:svg="http://www.w3.org/2000/svg">
  <defs
     id="defs17" />
  <sodipodi:namedview
     id="namedview15"
     pagecolor="#ffffff"
     bordercolor="#000000"
     borderopacity="0.25"
     inkscape:showpageshadow="2"
     inkscape:pageopacity="0.0"
     inkscape:pagecheckerboard="0"
     inkscape:deskcolor="#d1d1d1"
     showgrid="false"
     inkscape:zoom="1.0479322"
     inkscape:cx="739.0745"
     inkscape:cy="283.41527"
     inkscape:window-width="1920"
     inkscape:window-height="1019"
     inkscape:window-x="0"
     inkscape:window-y="0"
     inkscape:window-maximized="1"
     inkscape:current-layer="svg13" />
  <g
     id="surface1">
    <path
       style="stroke:none;fill-rule:nonzero;fill:#000000;fill-opacity:1"
       d="M 214.527344 602 C 222.253906 623.488281 232.292969 644.074219 244.472656 663.390625 L 442.695312 347.277344 C 442.695312 347.277344 421.859375 338.722656 409.359375 317.582031 L 473.082031 212.972656 L 755.5 663.417969 C 767.675781 644.097656 777.71875 623.515625 785.445312 602.027344 L 795.804688 573.332031 L 674.640625 380.140625 L 520.722656 134.640625 C 560.445312 69.417969 516.832031 2.109375 516.832031 2.109375 C 521.277344 77.722656 499.554688 100.945312 499.554688 100.945312 L 479.054688 68.277344 C 473.390625 58.980469 464.175781 52.402344 453.542969 50.070312 C 442.910156 47.734375 431.785156 49.847656 422.75 55.917969 C 404 68.527344 398.640625 94.472656 410.832031 113.859375 L 451.304688 178.222656 L 204.222656 573.5 L 214.5 602 Z M 749.804688 555.554688 C 761.667969 555.554688 771.304688 565.5 771.304688 577.75 C 771.492188 589.8125 761.867188 599.746094 749.804688 599.945312 C 737.742188 599.730469 728.132812 589.785156 728.332031 577.722656 C 728.332031 565.5 737.945312 555.554688 749.804688 555.554688 Z M 486.390625 134.582031 C 498.25 134.582031 507.890625 144.527344 507.890625 156.804688 C 508.058594 168.859375 498.441406 178.773438 486.390625 178.972656 C 474.335938 178.757812 464.730469 168.832031 464.917969 156.777344 C 464.917969 144.554688 474.527344 134.582031 486.390625 134.582031 Z M 486.390625 134.582031 "
       id="path2" />
    <path
       style="stroke:none;fill-rule:nonzero;fill:#000000;fill-opacity:1"
       d="M 826.140625 875.027344 L 772.75 769 C 790.828125 750.042969 806.957031 729.320312 820.890625 707.140625 L 916.667969 765.945312 L 841.359375 645.832031 L 822.890625 616.390625 C 805.824219 663.96875 778.804688 707.359375 743.640625 743.667969 C 712.480469 775.992188 675.277344 801.878906 634.140625 819.859375 C 591.867188 838.375 546.203125 847.890625 500.054688 847.804688 C 453.554688 847.804688 408.445312 838.445312 365.945312 819.859375 C 324.816406 801.863281 287.625 775.964844 256.472656 743.640625 C 221.304688 707.34375 194.285156 663.960938 177.222656 616.390625 L 158.75 645.859375 L 83.332031 766 L 179.109375 707.195312 C 193 729.332031 209.109375 749.972656 227.25 769.054688 L 173.859375 875.082031 L 268.804688 806.917969 C 289.738281 823.347656 312.347656 837.527344 336.25 849.222656 L 321.554688 967.609375 L 387.945312 869.917969 C 415.304688 878.609375 443.5 883.972656 472.25 886.140625 L 499.945312 1002.109375 L 527.667969 886.140625 C 556.304688 884.046875 584.601562 878.601562 611.972656 869.917969 L 678.359375 967.609375 L 663.609375 849.167969 C 687.511719 837.480469 710.109375 823.300781 731.027344 806.859375 Z M 826.140625 875.027344 "
       id="path4" />
    <path
       style="stroke:none;fill-rule:nonzero;fill:#000000;fill-opacity:1"
       d="M 500 750.667969 C 527.5 750.667969 549.777344 727.640625 549.777344 699.277344 C 549.777344 670.859375 527.472656 647.859375 499.972656 647.859375 C 472.472656 647.859375 450.195312 670.859375 450.195312 699.25 C 450.195312 727.640625 472.472656 750.640625 499.972656 750.640625 Z M 500 750.667969 "
       id="path6" />
    <path
       style="stroke:none;fill-rule:nonzero;fill:#000000;fill-opacity:1"
       d="M 270.832031 699.25 C 300.875 734.929688 338.722656 763.226562 381.445312 781.945312 C 418.808594 798.324219 459.175781 806.742188 499.972656 806.667969 C 541.082031 806.667969 580.972656 798.332031 618.5 781.945312 C 661.246094 763.265625 699.101562 734.964844 729.109375 699.25 C 699.070312 663.570312 661.222656 635.273438 618.5 616.554688 C 581.140625 600.191406 540.785156 591.78125 500 591.859375 C 458.890625 591.859375 419 600.195312 381.472656 616.582031 C 338.726562 635.253906 300.875 663.542969 270.859375 699.25 Z M 395.277344 650.359375 C 428.300781 635.921875 463.960938 628.496094 500 628.554688 C 536.390625 628.554688 571.582031 635.890625 604.75 650.359375 C 632.1875 662.371094 657.417969 678.894531 679.390625 699.25 C 657.429688 719.621094 632.199219 736.148438 604.75 748.140625 C 571.730469 762.578125 536.070312 770.003906 500.027344 769.945312 C 463.988281 770.011719 428.328125 762.597656 395.304688 748.167969 C 367.867188 736.15625 342.640625 719.628906 320.667969 699.277344 C 342.636719 678.914062 367.867188 662.378906 395.304688 650.359375 Z M 395.277344 650.359375 "
       id="path8" />
    <path
       style="stroke:none;fill-rule:nonzero;fill:#000000;fill-opacity:1"
       d="M 375.167969 530.859375 L 335.832031 593.609375 C 345.609375 588.140625 355.609375 583.167969 365.890625 578.695312 C 408.160156 560.171875 453.820312 550.648438 499.972656 550.722656 C 546.445312 550.722656 591.554688 560.109375 634.054688 578.695312 C 644.359375 583.195312 654.390625 588.167969 664.109375 593.609375 L 624.777344 530.890625 L 624.722656 530.890625 L 563.722656 433.390625 L 564.054688 514.972656 C 552.582031 512.972656 541 511.554688 529.277344 510.667969 L 500.027344 408.082031 L 470.75 510.582031 C 459.082031 511.5 447.5 512.972656 436.027344 514.917969 L 436.359375 433.332031 L 375.167969 530.890625 Z M 375.167969 530.859375 "
       id="path10" />
  </g>
  <path
     style="fill:none;stroke-width:1.34953"
     d="m 237.13167,649.49726 c -9.86696,-17.84243 -15.81266,-31.15718 -24.54088,-54.95671 L 204.94645,573.69649 327.61409,377.43521 C 395.08128,269.4915 450.59683,180.35274 450.98197,179.34908 c 0.38514,-1.00367 -8.74004,-16.86901 -20.27818,-35.25633 -11.53814,-18.38731 -21.99025,-35.8534 -23.22695,-38.81353 -3.57144,-8.548609 -2.21702,-25.009325 2.81919,-34.262499 4.32973,-7.955147 12.15517,-15.098151 20.30734,-18.536412 7.93227,-3.34551 21.30489,-3.01242 29.89197,0.744561 9.17197,4.012874 14.96118,10.493579 28.01639,31.362851 5.88739,9.411236 11.19797,16.806269 11.80128,16.433409 1.957,-1.209504 8.7269,-15.796328 11.01202,-23.727215 3.82031,-13.258958 6.20002,-33.356879 6.27578,-53.002417 l 0.0729,-18.8933873 4.05658,7.8611623 c 10.37403,20.103692 15.48477,44.144523 14.32616,67.390009 -0.89556,17.96785 -3.21342,27.426568 -10.43996,42.603168 -4.1479,8.71109 -5.04959,11.80831 -4.00562,13.75898 0.74098,1.38453 59.72904,95.61729 131.08459,209.40613 C 724.05097,460.20638 785.2881,557.861 788.77792,563.4278 l 6.34513,10.12146 -7.89302,21.59244 c -7.35274,20.11443 -21.07351,49.90783 -28.47712,61.83547 l -3.19994,5.15529 L 614.6186,437.34414 C 537.10468,313.71057 473.38057,212.5715 473.00945,212.59066 c -0.37112,0.0192 -15.00756,23.55037 -32.5254,52.29158 l -31.85065,52.25676 2.16104,3.84097 c 3.10559,5.51983 19.40706,20.57425 25.82262,23.84724 l 5.45942,2.78518 -2.54876,3.65669 c -1.40182,2.01119 -45.52839,72.28018 -98.05907,156.15332 -52.53067,83.87315 -95.93847,152.96877 -96.46178,153.54585 -0.5233,0.57707 -4.06715,-4.58488 -7.8752,-11.47099 z m 524.34531,-52.15391 c 5.6805,-3.04011 9.77808,-10.93629 9.77808,-18.84269 0,-13.9055 -7.12834,-21.97405 -20.22167,-22.88884 -8.58902,-0.60008 -14.59211,2.54088 -19.89466,10.40934 -5.83984,8.66572 -3.10946,23.53328 5.47181,29.7953 6.69657,4.8867 17.36459,5.54176 24.86644,1.52689 z M 498.77694,175.40354 c 9.31396,-5.94946 12.45326,-21.23247 6.25167,-30.43501 -9.6765,-14.35897 -27.37127,-14.35897 -37.04777,0 -4.68667,6.95453 -4.32073,18.21507 0.82267,25.31534 7.15116,9.87189 19.28828,11.945 29.97343,5.11967 z"
     id="path138" />
  <path
     style="fill:none;stroke-width:1.34953"
     d="m 339.5749,589.41487 c 0.27834,-0.73746 21.76113,-35.20351 47.73954,-76.59119 l 47.23347,-75.25035 0.35808,38.63574 0.35807,38.63573 3.01574,-0.0112 c 4.41274,-0.0164 32.22477,-3.7817 32.89675,-4.45369 0.31497,-0.31497 6.62225,-21.75703 14.01618,-47.64903 7.39394,-25.892 13.81807,-47.98729 14.27585,-49.10065 0.45779,-1.11336 7.01863,19.53441 14.57963,45.88394 7.56099,26.34953 14.05139,48.75662 14.42309,49.79354 0.59813,1.66861 21.83734,5.1546 33.24889,5.45714 l 3.01575,0.0799 0.35807,-38.69253 0.35808,-38.69253 47.60699,75.99332 c 26.18385,41.79633 47.43891,76.15497 47.23347,76.35253 -0.20544,0.19755 -5.97883,-2.33732 -12.82974,-5.63305 -37.99969,-18.28027 -77.08216,-29.05286 -119.12273,-32.8347 -58.91078,-5.29943 -119.28056,5.91898 -174.76383,32.47602 -6.68016,3.19745 -12.67713,6.06742 -13.32659,6.37772 -0.64946,0.31028 -0.9531,-0.0393 -0.67476,-0.77671 z"
     id="path140" />
  <path
     style="fill:none;stroke-width:1.34953"
     d="m 473.68421,804.91453 c -70.41333,-7.31525 -131.69524,-35.76294 -181.31127,-84.16654 -8.42566,-8.21976 -16.48965,-16.58147 -17.91999,-18.58158 l -2.60062,-3.63657 13.18389,-13.73573 c 47.13442,-49.10735 109.34886,-80.61227 177.17701,-89.72108 16.64789,-2.23569 55.26327,-2.54406 71.56036,-0.57146 69.80572,8.44927 134.983,41.21952 182.61067,91.81417 l 11.64905,12.37472 -2.56035,3.59568 c -5.07682,7.12973 -34.10844,34.09351 -47.19189,43.83054 -40.63457,30.24126 -87.02397,49.58399 -136.42212,56.88319 -17.67868,2.61225 -52.1433,3.58017 -68.17474,1.91466 z m 63.92937,-37.09457 c 34.40539,-5.0027 70.21907,-17.89761 99.72314,-35.90587 8.70804,-5.31509 28.15646,-19.60875 38.09553,-27.9984 l 4.71701,-3.98166 -3.36748,-3.63094 c -11.05544,-11.92041 -38.10781,-30.01465 -62.74669,-41.96873 -52.46774,-25.45584 -110.03814,-32.51971 -168.35524,-20.65713 -39.55635,8.04635 -84.16884,29.80154 -114.92169,56.04131 -5.71987,4.88046 -10.21319,9.38582 -9.98516,10.01191 0.76329,2.09582 21.64807,18.77637 32.79882,26.19623 32.28318,21.48167 69.36056,35.88537 107.53101,41.77329 17.44168,2.69045 58.39114,2.75466 76.51075,0.11998 z"
     id="path142" />
  <path
     style="fill:none;stroke-width:1.34953"
     d="m 485.82996,747.86235 c -2.96896,-0.97741 -6.87871,-2.5729 -8.68832,-3.54554 -6.54605,-3.51838 -16.64771,-14.35131 -20.7924,-22.29758 -3.96025,-7.59266 -4.23557,-9.03923 -4.24615,-22.31017 -0.0106,-13.29312 0.2662,-14.75526 4.37455,-23.10739 5.20824,-10.58816 13.68707,-18.88163 24.39261,-23.85935 6.38416,-2.96843 9.56781,-3.56108 19.12975,-3.56108 9.56194,0 12.74559,0.59265 19.12975,3.56108 10.70554,4.97772 19.18437,13.27119 24.39261,23.85935 4.10835,8.35213 4.38516,9.81427 4.37455,23.10739 -0.0105,13.27094 -0.2859,14.71751 -4.24615,22.31017 -5.01903,9.62257 -15.59949,19.97127 -24.46422,23.92834 -7.87434,3.51497 -25.434,4.52296 -33.35658,1.91478 z"
     id="path144" />
</svg>
