<?xml version="1.0" encoding="iso-8859-1"?>
<!-- Uploaded to: SVG Repo, www.svgrepo.com, Generator: SVG Repo Mixer Tools -->
<!DOCTYPE svg PUBLIC "-//W3C//DTD SVG 1.1//EN" "http://www.w3.org/Graphics/SVG/1.1/DTD/svg11.dtd">
<svg fill="#000000" version="1.1" id="Capa_1" xmlns="http://www.w3.org/2000/svg" xmlns:xlink="http://www.w3.org/1999/xlink" 
	 width="800px" height="800px" viewBox="0 0 61.659 61.658"
	 xml:space="preserve">
<g>
	<g>
		<path d="M23.684,19.131c-3.275-2.262-6.794-2.086-10.266-0.706c-3.19,1.271-5.148,3.916-6.593,6.929
			c-1.146,2.384-1.89,4.935-1.424,7.555c0.39,2.194,1.309,4.295,1.928,6.455c0.619,2.151,1.299,4.295,1.701,6.492
			c0.646,3.559,0.874,7.21,1.672,10.732c1.164,5.125,4.785,6.168,9.51,4.01c1.215-0.554,1.777-1.597,2.055-2.842
			c0.432-1.939-0.129-3.728-1.025-5.367c-1.504-2.742-3.116-5.432-4.774-8.082c-1.217-1.946-1.979-4.006-2.037-6.301
			c-0.042-1.366-0.014-2.734,0.018-4.104c0.005-0.207,0.199-0.415,0.316-0.616c0.149-0.253,0.315-0.501,0.469-0.749
			c-0.256-0.074-0.516-0.149-0.819-0.238c0.025-0.339,0.054-0.684,0.103-1.319c-0.392,0.45-0.579,0.668-0.887,1.023
			c0-0.642,0-1.097,0-1.458c0.348,0.138,0.6,0.236,0.848,0.336c-0.059-0.252-0.127-0.502-0.159-0.642
			c0.23-0.196,0.439-0.381,0.656-0.555c0.066-0.056,0.189-0.139,0.229-0.116c0.125,0.075,0.334,0.236,0.311,0.292
			c-0.324,0.925,0.133,1.385,1.065,1.727c-0.283-0.491-0.501-0.876-0.724-1.264c0.054-0.084,0.107-0.167,0.162-0.249
			c0.221,0.187,0.462,0.352,0.653,0.563c0.243,0.267,0.441,0.573,0.834,1.09c-0.091-0.8-0.14-1.216-0.185-1.634
			c0.4,0.031,0.802,0.084,1.204,0.091c0.764,0.014,1.584,0.161,1.953-0.82c0.044-0.111,0.336-0.164,0.517-0.187
			c0.259-0.033,0.526-0.009,0.932-0.009c0.067,0.803,0.575,1.016,1.264,0.628C27.664,27.276,26.447,21.035,23.684,19.131z"/>
		<path d="M22.324,17.654c1.475,0.309,1.979-1.001,2.481-1.859c1.458-2.495-0.941-6.433-3.812-6.452
			c-1.319-0.009-1.7,0.285-1.93,1.642c-0.392,2.318,0.533,4.252,1.906,6C21.252,17.346,21.843,17.552,22.324,17.654z"/>
		<path d="M15.599,15.877c1.514,0.009,2.497-1.091,2.452-2.797c0-0.254,0.026-0.511-0.004-0.763
			c-0.116-0.951-1.366-2.288-2.202-2.315c-1.184-0.042-1.698,0.862-1.92,1.752c-0.225,0.883-0.218,1.883-0.063,2.786
			C14.001,15.376,14.665,15.873,15.599,15.877z"/>
		<path d="M11.472,18.082c1,0.009,1.848-0.657,2.135-1.625c0.336-1.136-0.584-2.82-1.726-3.163
			c-0.615-0.185-1.625,0.474-1.839,1.373c-0.161,0.678-0.161,1.422-0.075,2.118C10.068,17.638,10.607,18.14,11.472,18.082z"/>
		<path d="M6.191,23.697c1.556-0.317,1.936-1.471,0.977-3.029c2.148,0.343,3.176-0.408,3.006-2.202
			c-0.078-0.79-1.112-1.895-1.854-1.864c-0.887,0.034-1.422,0.633-1.516,1.447c-0.085,0.762,0.064,1.549,0.108,2.325
			C6.27,20.046,5.467,19.78,5.06,20.462c-0.39,0.646-0.569,1.544-0.504,2.3C4.626,23.581,5.34,23.873,6.191,23.697z"/>
		<path d="M48.239,9.084c-3.469-1.38-6.989-1.556-10.267,0.706c-2.763,1.903-3.979,8.145,0.497,10.669
			c0.688,0.388,1.197,0.175,1.264-0.628c0.408,0,0.673-0.023,0.933,0.009c0.181,0.021,0.473,0.073,0.516,0.187
			c0.37,0.981,1.188,0.833,1.953,0.82c0.401-0.007,0.803-0.061,1.204-0.091c-0.048,0.418-0.094,0.833-0.185,1.635
			c0.393-0.521,0.593-0.827,0.832-1.091c0.192-0.212,0.437-0.376,0.655-0.562c0.053,0.081,0.107,0.163,0.162,0.248
			c-0.224,0.385-0.44,0.771-0.726,1.264c0.933-0.341,1.389-0.804,1.065-1.727c-0.023-0.056,0.185-0.217,0.31-0.292
			c0.041-0.023,0.162,0.06,0.23,0.117c0.217,0.172,0.427,0.357,0.655,0.553c-0.034,0.14-0.101,0.39-0.157,0.642
			c0.246-0.098,0.499-0.196,0.846-0.336c0,0.36,0,0.815,0,1.458c-0.308-0.354-0.495-0.572-0.888-1.023
			c0.051,0.635,0.078,0.981,0.104,1.32c-0.304,0.086-0.56,0.162-0.819,0.238c0.155,0.248,0.319,0.495,0.47,0.75
			c0.116,0.198,0.311,0.406,0.315,0.613c0.031,1.367,0.059,2.739,0.018,4.105c-0.057,2.293-0.818,4.352-2.037,6.3
			c-1.658,2.65-3.269,5.34-4.774,8.082c-0.898,1.64-1.457,3.429-1.023,5.367c0.278,1.245,0.839,2.288,2.055,2.842
			c4.725,2.158,8.347,1.118,9.51-4.01c0.799-3.52,1.022-7.172,1.672-10.732c0.402-2.196,1.082-4.341,1.7-6.492
			c0.622-2.162,1.537-4.261,1.927-6.457c0.466-2.619-0.278-5.17-1.423-7.554C53.387,13,51.428,10.355,48.239,9.084z"/>
		<path d="M39.333,8.311c0.481-0.103,1.072-0.308,1.355-0.669c1.375-1.747,2.299-3.682,1.907-5.999
			C42.363,0.283,41.985-0.009,40.666,0c-2.871,0.017-5.269,3.956-3.812,6.452C37.356,7.312,37.86,8.623,39.333,8.311z"/>
		<path d="M46.058,6.536c0.936-0.004,1.602-0.5,1.741-1.334c0.152-0.906,0.159-1.904-0.064-2.787
			C47.511,1.526,47,0.622,45.817,0.664c-0.838,0.031-2.09,1.364-2.204,2.315c-0.029,0.25-0.004,0.509-0.004,0.763
			C43.561,5.442,44.543,6.545,46.058,6.536z"/>
		<path d="M50.187,8.739c0.864,0.058,1.403-0.444,1.506-1.297c0.087-0.696,0.087-1.44-0.075-2.118
			c-0.215-0.9-1.223-1.558-1.839-1.374c-1.141,0.343-2.062,2.027-1.725,3.163C48.339,8.082,49.186,8.748,50.187,8.739z"/>
		<path d="M56.599,11.119c-0.408-0.682-1.211-0.417-1.854-0.089c0.046-0.776,0.194-1.562,0.109-2.325
			c-0.094-0.814-0.632-1.413-1.517-1.447c-0.741-0.031-1.774,1.075-1.853,1.864c-0.171,1.794,0.857,2.548,3.007,2.202
			c-0.961,1.558-0.58,2.715,0.977,3.029c0.851,0.176,1.564-0.116,1.635-0.937C57.167,12.663,56.99,11.766,56.599,11.119z"/>
	</g>
</g>
</svg>